# xmcd CD database file
#
# Track frame offsets:
#	150
#	39457
#	74670
#	96392
#	133530
#	164487
#
# Disc length: 2653 seconds
#
# Revision: 0
# Processed by: cddbd v1.5.1PL0 Copyright (c) Steve Scherf et al.
# Submitted via: CDex 1.51
#
DISCID=550a5b06
DTITLE=Bill Watrous - With Carl Fontana
DYEAR=1984
DGENRE=Jazz
TTITLE0=Hey There
TTITLE1=Memories Of You
TTITLE2=Dearly Beloved
TTITLE3=If You Were The Only Girl
TTITLE4=I Wish I Didn't Love You So
TTITLE5=Baby It's Cold Outside
EXTD=YEAR: 1984
EXTT0=
EXTT1=
EXTT2=
EXTT3=
EXTT4=
EXTT5=
PLAYORDER=
